<svg width="93" height="58" viewBox="0 0 93 58" fill="none" xmlns="http://www.w3.org/2000/svg">
<g id="Frame 12" opacity="0.5" clip-path="url(#clip0_418_1344)">
<g id="blending 1684175894854">
<path id="Vector 1" d="M9.5 -5.49805C2.33333 -0.164716 -7.7 17.5019 9.5 45.502C31 80.502 25.5 14.502 65.5 80.502" stroke="#404040" stroke-width="10"/>
<path id="Vector 2" d="M75.0008 -34.4993C79.5008 -38.166 89.2008 -40.1993 92.0008 -18.9993C95.5008 7.50066 64.5008 8.50073 87.5008 23.0007C110.501 37.5007 140.501 15.0007 135.001 38.0007" stroke="#404040"/>
<path id="Vector 1 - Vector 2 - 167" d="M20.5267 -10.7207C18.2906 -9.10959 16.3239 -4.65682 15.7454 6.02929C15.2836 17.5987 11.61 27.2793 22.61 41.3626C44.36 72.946 44.7767 14.196 77.1934 73.0293" stroke="#404040" stroke-width="8.5"/>
<path id="Vector 1 - Vector 2 - 333" d="M31.5534 -15.9414C30.6645 -15.3859 31.0312 -12.2303 31.1284 0.558591C31.4589 15.1141 22.3201 23.0586 35.7201 37.2253C57.7201 65.3919 64.0534 13.8919 88.8867 65.5586" stroke="#404040" stroke-width="7"/>
<path id="Vector 1 - Vector 2 - 500" d="M42.5811 -21.0922C43.0394 -21.5922 45.7394 -19.7338 46.5123 -4.84217C47.6352 12.6995 33.0311 18.9079 48.8311 33.1579C71.0811 57.9079 83.3311 13.6579 100.581 58.1579" stroke="#404040" stroke-width="5.5"/>
<path id="Vector 1 - Vector 2 - 667" d="M53.6078 -25.8153C55.4133 -27.3708 60.4466 -26.8097 61.8953 -9.81525C63.8105 10.7125 43.7411 15.1848 61.9411 29.5181C84.4411 50.8515 102.608 13.8515 112.274 51.1848" stroke="#404040" stroke-width="4"/>
<path id="Vector 1 - Vector 2 - 833" d="M64.6345 -30.2429C67.7872 -32.854 75.1539 -33.5901 77.2782 -14.4929C79.9858 9.02101 54.4511 11.7572 75.0511 26.1738C97.8011 44.0905 121.884 14.3405 123.968 44.5072" stroke="#404040" stroke-width="2.5"/>
</g>
</g>
<defs>
<clipPath id="clip0_418_1344">
<rect width="58" height="93" fill="white" transform="translate(93) rotate(90)"/>
</clipPath>
</defs>
</svg>
