<svg width="80" height="70" viewBox="0 0 80 70" fill="none" xmlns="http://www.w3.org/2000/svg">
<g id="Frame 28">
<rect id="Rectangle 80" width="80" height="70" rx="15" fill="#3F6FEC"/>
<path id="icon" fill-rule="evenodd" clip-rule="evenodd" d="M38.0942 28.5648C38.9577 27.4011 39.2673 26.1747 38.2907 25.0921C36.0991 22.0255 34.6252 20.1291 33.7007 19.2159C31.9431 17.4796 29.0519 17.7145 27.5297 19.2144C26.7121 20.02 26.4353 20.2966 25.5958 21.1493C20.9197 25.8279 23.7714 35.7183 31.3523 43.3067C38.9315 50.8933 48.8209 53.7465 53.5069 49.058C54.2815 48.3112 54.9374 47.655 55.4547 47.1083C56.9464 45.5316 57.1729 42.7678 55.4449 40.9723C54.5589 40.0518 52.7505 38.6491 49.5549 36.3632C48.5761 35.488 47.4157 35.6777 46.3517 36.3757C45.84 36.7115 45.4675 37.0511 44.7642 37.7551L43.4872 39.0328C43.319 39.2011 41.035 38.0573 38.8179 35.838C36.5995 33.6175 35.4565 31.3334 35.6239 31.166C35.9692 30.8208 36.3951 30.3946 36.9019 29.8873C37.125 29.664 37.2317 29.5559 37.3685 29.4121C37.6535 29.1125 37.8895 28.8407 38.0942 28.5648ZM45.8429 41.3895L47.1202 40.1115C47.5073 39.7241 47.7581 39.4859 47.9622 39.3216C50.7616 41.332 52.3829 42.5961 53.0451 43.2841C53.4427 43.6973 53.3809 44.4511 53.0353 44.8164C52.557 45.322 51.9355 45.9437 51.1729 46.6793C48.1428 49.7107 40.1598 47.4074 33.7086 40.9498C27.2552 34.4902 24.9531 26.506 27.9603 23.4971C28.7964 22.6479 29.0613 22.3832 29.8673 21.5891C30.1694 21.2913 30.9925 21.2245 31.3601 21.5876C32.0719 22.2907 33.3922 23.9813 35.3345 26.6869C35.234 26.8117 35.1084 26.9528 34.9556 27.1134C34.8434 27.2313 34.7499 27.326 34.5456 27.5305C34.0393 28.0373 33.6137 28.4632 33.2689 28.8079C31.097 30.9796 32.9467 34.6758 36.4616 38.1942C39.9741 41.7102 43.6717 43.5619 45.8429 41.3895Z" fill="white"/>
</g>
</svg>
