<svg width="218" height="37" viewBox="0 0 218 37" fill="none" xmlns="http://www.w3.org/2000/svg">
<g id="Vector" filter="url(#filter0_b_418_927)">
<path d="M0 18.5C0 8.28273 8.27224 0 18.4766 0H56.0391C62.2369 0 67.722 3.05553 71.0737 7.74419V29.2558C67.722 33.9445 62.2369 37 56.0391 37H18.4766C8.27224 37 0 28.7173 0 18.5Z" fill="#C7C7C7" fill-opacity="0.6"/>
<path d="M82.8481 29.2558V7.74419C86.1999 3.05553 91.685 0 97.8828 0H199.523C209.728 0 218 8.28273 218 18.5C218 28.7173 209.728 37 199.523 37H97.8828C91.685 37 86.1999 33.9445 82.8481 29.2558Z" fill="#C7C7C7" fill-opacity="0.6"/>
<path d="M71.0737 29.2558V7.74419C76.744 12.6789 77.1779 12.6789 82.8481 7.74419V29.2558C77.1779 24.3211 76.744 24.3211 71.0737 29.2558Z" fill="#C7C7C7" fill-opacity="0.6"/>
</g>
<defs>
<filter id="filter0_b_418_927" x="-58" y="-58" width="334" height="153" filterUnits="userSpaceOnUse" color-interpolation-filters="sRGB">
<feFlood flood-opacity="0" result="BackgroundImageFix"/>
<feGaussianBlur in="BackgroundImageFix" stdDeviation="29"/>
<feComposite in2="SourceAlpha" operator="in" result="effect1_backgroundBlur_418_927"/>
<feBlend mode="normal" in="SourceGraphic" in2="effect1_backgroundBlur_418_927" result="shape"/>
</filter>
</defs>
</svg>
